<?xml version="1.0" standalone="no"?>
<!DOCTYPE svg PUBLIC "-//W3C//DTD SVG 20010904//EN"
 "http://www.w3.org/TR/2001/REC-SVG-20010904/DTD/svg10.dtd">
<svg version="1.0" xmlns="http://www.w3.org/2000/svg"
 width="980.000000pt" height="980.000000pt" viewBox="0 0 980.000000 980.000000"
 preserveAspectRatio="xMidYMid meet">

<g transform="translate(0.000000,980.000000) scale(0.100000,-0.100000)"
fill="#000000" stroke="none">
<path d="M4619 7730 c-47 -25 -106 -91 -131 -148 -11 -26 -65 -157 -120 -292
-251 -617 -374 -871 -442 -915 -33 -22 -77 -12 -123 28 l-35 31 5 -395 c4
-334 8 -414 25 -524 35 -219 82 -365 117 -365 7 0 35 13 62 30 99 61 128 51
213 -75 27 -40 63 -83 79 -94 40 -29 106 -51 149 -51 l36 0 -45 29 c-58 37
-84 66 -109 124 -21 46 -21 57 -14 275 7 245 1 293 -48 399 -20 42 -133 171
-142 162 -2 -2 10 -44 27 -94 27 -79 31 -104 31 -202 1 -129 -12 -158 -81
-182 -37 -13 -43 -13 -79 6 -45 23 -79 68 -96 127 -18 62 -15 211 6 281 20 67
73 129 121 141 40 10 111 -11 172 -51 l52 -34 -31 61 c-95 192 -119 355 -73
492 41 120 165 267 313 371 39 28 71 53 72 58 0 4 -47 7 -105 7 -58 0 -105 1
-105 3 1 11 77 238 115 342 50 138 155 364 199 429 15 21 26 40 24 41 -2 2
-19 -5 -39 -15z"/>
<path d="M5140 7746 c0 -3 12 -22 26 -43 40 -59 117 -216 167 -343 40 -101
147 -411 147 -425 0 -3 -47 -5 -105 -5 -58 0 -105 -4 -105 -9 0 -5 15 -18 33
-28 17 -11 67 -48 109 -82 275 -222 333 -458 187 -770 -22 -46 -37 -86 -35
-88 2 -2 24 10 48 26 54 37 124 57 163 47 47 -12 101 -75 119 -136 51 -185 12
-366 -89 -414 -50 -24 -104 -9 -137 37 -21 29 -23 43 -22 142 0 96 4 121 31
200 17 50 30 92 28 94 -10 10 -107 -97 -134 -148 -56 -105 -63 -154 -59 -424
3 -232 2 -244 -19 -282 -24 -45 -62 -83 -113 -114 l-35 -21 36 0 c44 0 110 22
150 51 16 11 52 54 79 94 85 126 114 136 214 74 27 -16 56 -29 65 -27 35 7 78
145 113 363 17 110 21 190 25 524 l5 395 -35 -31 c-46 -40 -90 -50 -123 -28
-72 47 -199 316 -505 1070 -79 193 -114 247 -191 286 -21 11 -38 17 -38 15z"/>
<path d="M4085 7501 c-405 -200 -685 -503 -810 -876 -32 -95 -65 -258 -65
-322 0 -44 1 -45 18 -30 29 27 88 47 136 47 38 0 51 -5 79 -34 44 -44 57 -94
64 -246 5 -133 -13 -297 -41 -365 -19 -45 -40 -45 -115 -3 -147 83 -347 260
-391 346 -41 79 -7 180 94 283 56 57 44 58 -39 3 -110 -72 -165 -165 -165
-276 0 -157 110 -325 412 -629 122 -122 147 -153 184 -226 99 -194 201 -285
368 -327 32 -9 63 -13 67 -10 5 3 9 39 9 80 0 42 4 74 9 72 45 -17 411 -194
411 -199 0 -3 -28 -19 -62 -34 -210 -95 -437 -86 -604 24 -90 59 -196 175
-259 285 l-28 49 -111 -6 c-159 -8 -281 -52 -412 -150 -58 -44 -160 -145 -153
-152 2 -1 31 2 64 7 115 18 175 -24 183 -131 6 -86 -4 -111 -152 -392 -129
-246 -168 -378 -167 -569 0 -187 46 -333 158 -502 24 -38 48 -68 52 -68 4 0
-5 37 -20 83 -79 236 -78 421 2 512 53 60 123 63 182 8 89 -86 87 -198 -7
-301 l-51 -55 1 -121 c0 -128 19 -224 80 -425 l29 -94 265 -248 c145 -136 266
-246 268 -244 2 2 -71 149 -162 327 l-165 323 11 115 c6 63 12 246 12 405 1
304 -7 386 -45 475 -17 38 -29 50 -84 78 -65 34 -158 108 -153 122 2 4 37 33
78 64 104 79 215 180 261 239 35 44 39 55 39 106 0 60 -21 135 -59 210 l-22
43 23 -7 c13 -4 74 -31 136 -61 78 -38 128 -69 164 -104 47 -45 50 -52 45 -84
-8 -50 -63 -128 -153 -219 -43 -42 -73 -77 -67 -77 16 0 213 67 300 101 87 35
235 108 283 141 59 40 66 42 40 12 -14 -15 -30 -33 -36 -39 -6 -5 -67 -73
-135 -150 -139 -156 -225 -262 -256 -315 -52 -87 -67 -230 -38 -344 24 -93 28
-95 62 -35 67 118 99 121 198 18 195 -204 435 -589 435 -698 0 -29 -46 -78
-87 -92 -21 -6 -63 -9 -98 -6 l-63 5 28 -48 c139 -236 353 -486 540 -631 47
-36 92 -69 100 -74 15 -8 8 1 -60 78 -60 68 -200 251 -236 311 -46 74 -55 135
-25 165 17 17 33 21 82 21 l61 0 -7 77 c-15 172 -54 350 -106 483 -31 81 -73
150 -157 259 -69 89 -134 208 -178 329 -34 92 -40 102 -51 85 -35 -48 -43 -53
-89 -53 -40 0 -51 5 -85 39 -34 33 -39 45 -39 83 0 55 31 105 80 131 27 14 49
17 97 13 l62 -5 200 335 200 334 3 75 c1 41 0 76 -3 79 -3 3 -65 24 -139 46
-273 84 -502 190 -557 258 -21 26 -23 10 -8 -63 8 -38 13 -71 10 -73 -3 -3
-103 92 -222 211 l-218 217 51 0 c82 0 221 -28 276 -56 27 -14 51 -24 53 -22
1 2 -1 30 -5 63 -44 321 -58 794 -27 890 9 27 15 50 14 51 -1 2 -22 -2 -46 -7
-44 -10 -68 -7 -109 14 -117 57 -31 355 185 645 82 109 280 304 403 396 123
92 116 86 104 86 -6 0 -64 -27 -129 -59z"/>
<path d="M5581 7556 c2 -2 51 -39 109 -82 128 -95 323 -289 408 -404 132 -178
218 -363 229 -492 7 -77 -6 -119 -44 -144 -27 -17 -102 -22 -143 -9 -19 6 -22
4 -16 -11 31 -81 41 -249 27 -474 -12 -183 -36 -450 -47 -501 l-5 -26 59 29
c63 32 185 57 272 57 l55 1 -218 -217 c-120 -118 -219 -214 -222 -212 -2 2 2
36 10 74 7 39 12 71 10 73 -2 2 -13 -6 -25 -18 -66 -66 -259 -155 -517 -239
l-178 -58 3 -76 3 -76 200 -335 200 -335 62 5 c74 6 119 -13 154 -65 35 -53
32 -112 -10 -157 -28 -31 -41 -37 -83 -41 -51 -4 -67 4 -96 45 -16 23 -16 23
-33 -30 -48 -147 -133 -303 -229 -423 -123 -152 -204 -395 -231 -699 l-8 -79
36 6 c20 3 52 1 71 -4 111 -31 62 -152 -178 -439 -57 -69 -103 -127 -101 -129
9 -9 185 136 269 223 120 123 211 237 306 381 42 62 80 128 80 137 0 2 -33 2
-72 0 -59 -2 -79 1 -105 17 -78 49 -79 96 -3 249 80 162 272 431 394 551 81
80 117 72 179 -38 l31 -55 12 30 c44 104 44 273 0 367 -36 76 -175 248 -365
452 -31 34 -69 76 -86 94 l-30 34 60 -41 c77 -51 193 -110 320 -160 90 -36
260 -92 278 -92 4 0 -26 34 -68 76 -87 89 -144 171 -152 218 -7 44 35 92 127
147 56 33 220 109 236 109 2 0 -6 -21 -20 -47 -51 -101 -69 -208 -45 -270 14
-37 162 -181 274 -267 50 -38 92 -71 95 -74 11 -9 -103 -100 -159 -127 -52
-24 -63 -34 -80 -74 -39 -91 -46 -170 -45 -481 1 -162 6 -344 12 -405 l11
-110 -165 -322 c-90 -177 -164 -325 -164 -329 0 -3 50 40 112 97 313 290 426
400 431 421 3 13 19 68 36 123 62 199 90 429 60 488 -6 12 -26 38 -45 57 -50
52 -78 123 -70 178 19 143 149 211 236 124 89 -89 93 -273 11 -519 -15 -46
-24 -83 -21 -83 14 0 93 123 131 204 55 119 80 232 80 369 0 190 -39 321 -167
566 -98 184 -123 236 -140 285 -18 50 -18 140 0 175 30 56 103 81 186 62 24
-5 46 -8 48 -6 2 2 -18 27 -44 55 -148 158 -351 250 -554 250 l-78 0 -28 -47
c-74 -128 -198 -256 -299 -310 -162 -85 -370 -85 -562 2 -35 15 -63 31 -63 34
0 5 366 182 411 199 5 2 9 -33 9 -78 l0 -81 38 7 c136 24 248 96 335 214 14
19 45 74 70 122 37 72 63 105 154 196 222 221 351 380 410 507 40 87 44 193
11 267 -14 30 -40 70 -57 91 -33 37 -151 120 -159 112 -3 -3 16 -26 41 -52 57
-58 95 -127 103 -186 9 -65 -22 -120 -125 -220 -122 -118 -309 -247 -358 -247
-32 0 -49 43 -68 168 -36 237 -7 446 69 495 46 31 148 15 198 -30 17 -15 18
-14 18 30 0 119 -67 362 -140 508 -109 215 -313 435 -545 584 -99 64 -361 194
-324 161z"/>
<path d="M4785 6070 c-43 -131 -118 -229 -221 -289 -112 -65 -134 -82 -163
-122 -29 -39 -49 -109 -37 -128 4 -6 45 13 93 42 l86 51 99 -104 c54 -58 112
-121 128 -141 l29 -36 -92 -6 c-105 -7 -182 -27 -221 -58 -22 -17 -26 -28 -26
-73 0 -50 20 -136 39 -165 7 -11 14 -10 39 8 42 30 82 35 124 18 47 -20 71
-58 71 -111 0 -73 -50 -122 -124 -120 -21 1 -50 9 -64 18 -32 21 -32 11 0 -36
25 -37 147 -108 186 -108 36 0 19 -17 -75 -75 -191 -118 -351 -257 -395 -342
-46 -92 -23 -149 92 -221 75 -48 130 -106 147 -157 19 -59 7 -220 -26 -345
-40 -152 -38 -229 9 -343 33 -82 133 -243 192 -312 l26 -30 -26 53 c-45 92
-88 234 -89 294 -1 64 20 103 69 127 60 29 110 -30 145 -166 45 -184 48 -176
49 140 1 158 0 287 -1 287 -2 0 -21 -7 -43 -15 -133 -48 -190 19 -127 148 17
35 63 99 102 143 39 43 81 96 93 116 25 43 33 46 42 19 3 -10 46 -66 95 -123
49 -56 99 -123 112 -148 30 -58 32 -135 4 -156 -25 -18 -73 -18 -126 1 -23 8
-44 15 -46 15 -2 0 -4 -129 -4 -287 1 -189 4 -282 10 -272 6 10 21 59 35 110
34 128 51 164 90 185 31 17 34 17 66 -2 19 -11 42 -35 52 -54 30 -59 8 -167
-68 -337 -33 -74 -33 -76 -9 -48 57 65 166 243 193 315 47 120 48 163 10 320
-36 153 -49 305 -29 365 17 51 61 99 146 156 91 61 114 90 114 143 0 59 -46
132 -132 210 -80 74 -218 175 -315 232 -35 20 -63 40 -63 44 0 4 15 11 33 14
54 11 150 69 174 105 29 43 29 57 1 39 -55 -36 -111 -31 -156 13 -107 105 38
270 158 180 26 -19 34 -21 41 -10 19 29 39 115 39 165 0 45 -4 56 -27 73 -37
30 -121 52 -226 60 l-90 6 127 138 c70 75 131 137 137 137 5 0 45 -22 89 -50
46 -29 82 -45 85 -39 13 20 -8 91 -39 132 -19 26 -60 58 -105 84 -146 83 -212
156 -263 290 -30 79 -34 84 -39 58 -11 -50 -10 -141 2 -197 15 -69 43 -124 86
-169 l35 -37 -102 -143 c-55 -79 -105 -144 -110 -144 -5 0 -54 64 -110 143
l-101 143 44 48 c26 30 50 71 61 103 21 64 31 188 19 243 l-9 40 -19 -55z
m225 -1527 c125 -132 220 -256 220 -287 0 -36 -17 -44 -128 -60 -104 -16 -173
-42 -191 -73 -11 -17 -11 -17 -22 0 -18 31 -87 57 -189 72 -54 9 -106 18 -115
21 -22 9 -18 49 10 94 46 73 281 337 302 339 6 0 57 -47 113 -106z"/>
</g>
</svg>
