<?xml version="1.0" standalone="no"?>
<!DOCTYPE svg PUBLIC "-//W3C//DTD SVG 20010904//EN"
 "http://www.w3.org/TR/2001/REC-SVG-20010904/DTD/svg10.dtd">
<svg version="1.0" xmlns="http://www.w3.org/2000/svg"
 width="2500.000000pt" height="2500.000000pt" viewBox="0 0 2500.000000 2500.000000"
 preserveAspectRatio="xMidYMid meet">

<g transform="translate(0.000000,2500.000000) scale(0.100000,-0.100000)"
fill="#000000" stroke="none">
<path d="M11040 24407 c-114 -50 -194 -109 -320 -236 -116 -117 -211 -244
-268 -357 -35 -69 -110 -249 -490 -1179 -1028 -2513 -1489 -3498 -1790 -3825
-180 -196 -373 -172 -661 84 -47 42 -86 74 -87 73 -3 -2 11 -1082 26 -2052 18
-1138 35 -1410 126 -1935 129 -753 304 -1296 433 -1350 25 -10 38 -8 98 17 38
16 120 60 181 97 226 136 346 174 453 143 119 -35 220 -138 427 -434 258 -368
365 -461 638 -556 142 -49 251 -68 368 -65 l99 3 -154 101 c-262 173 -347 262
-450 471 -93 189 -101 233 -102 513 0 129 6 439 13 687 20 702 7 1034 -50
1268 -42 170 -131 383 -208 497 -79 118 -265 340 -388 465 -105 105 -144 133
-144 99 0 -21 44 -169 117 -391 77 -238 99 -331 114 -496 16 -175 6 -671 -15
-764 -40 -176 -117 -255 -322 -328 -142 -51 -199 -44 -348 44 -196 116 -338
335 -393 606 -27 131 -26 685 1 858 43 280 134 478 296 643 130 133 234 178
390 169 183 -11 384 -91 639 -256 77 -50 143 -91 146 -91 2 0 -42 93 -98 208
-303 612 -431 1096 -414 1562 14 383 111 664 353 1025 245 365 595 717 1024
1030 197 144 310 235 310 249 0 22 -70 28 -475 36 -214 4 -391 8 -392 9 -7 4
250 779 402 1211 276 785 669 1638 965 2095 38 58 48 85 33 85 -5 0 -42 -15
-83 -33z"/>
<path d="M13155 24411 c8 -17 48 -81 88 -143 186 -287 462 -848 664 -1348 125
-308 374 -1004 541 -1510 114 -345 114 -347 94 -355 -9 -4 -181 -10 -382 -15
-321 -8 -461 -18 -478 -35 -10 -10 45 -59 133 -118 289 -194 664 -503 864
-712 390 -409 609 -823 678 -1283 19 -128 21 -428 4 -552 -46 -330 -133 -614
-306 -1000 -121 -269 -159 -370 -137 -370 10 1 110 57 234 132 201 123 385
182 549 176 133 -5 200 -38 325 -162 183 -182 256 -339 314 -676 39 -226 43
-542 9 -735 -32 -185 -101 -369 -183 -493 -128 -193 -339 -305 -518 -273 -193
34 -361 203 -388 392 -13 85 -12 619 0 739 16 155 37 240 131 529 97 298 110
351 87 351 -51 0 -362 -337 -490 -531 -84 -128 -191 -366 -227 -506 -64 -249
-72 -408 -71 -1392 2 -853 -1 -935 -35 -1031 -41 -116 -131 -248 -249 -365
-89 -88 -163 -144 -312 -235 l-98 -60 101 0 c181 0 342 40 528 130 55 27 123
66 150 87 67 52 202 214 336 406 141 201 232 312 301 365 77 59 121 76 203 75
88 0 168 -29 320 -118 145 -84 255 -136 303 -142 35 -5 43 -1 73 29 123 122
264 585 383 1259 90 504 116 831 131 1659 8 425 34 2384 31 2387 -1 1 -40 -31
-87 -73 -229 -204 -400 -259 -549 -178 -247 134 -645 911 -1452 2834 -158 378
-329 793 -631 1530 -282 691 -417 949 -584 1113 -91 90 -147 129 -277 193
-129 64 -143 67 -121 25z"/>
<path d="M9240 23651 c-147 -58 -641 -302 -863 -425 -1372 -760 -2366 -1841
-2893 -3145 -200 -494 -367 -1208 -381 -1628 -7 -208 -6 -209 90 -135 203 156
560 226 737 146 86 -39 207 -170 265 -286 76 -156 105 -308 130 -683 18 -270
19 -403 5 -660 -34 -608 -133 -1064 -249 -1142 -71 -48 -177 -19 -406 111
-615 351 -1448 1092 -1620 1441 -50 100 -66 174 -66 290 0 282 137 539 485
913 141 152 150 180 40 123 -90 -47 -314 -195 -406 -270 -213 -171 -379 -407
-451 -636 -46 -149 -52 -191 -52 -390 1 -159 4 -206 23 -288 81 -365 283 -730
675 -1221 229 -288 517 -602 1000 -1094 503 -512 604 -632 731 -869 209 -387
275 -498 407 -673 214 -284 438 -473 734 -616 203 -99 519 -195 653 -198 l67
-1 13 40 c8 25 17 131 22 280 10 259 19 318 48 308 129 -46 1632 -773 1686
-815 18 -14 15 -17 -50 -56 -38 -23 -118 -63 -179 -90 -716 -321 -1449 -365
-2094 -126 -202 76 -432 206 -601 341 -358 285 -690 680 -944 1121 l-89 153
-51 -5 c-28 -3 -150 -11 -271 -16 -536 -27 -847 -90 -1203 -247 -231 -102
-503 -266 -700 -424 -241 -194 -615 -570 -590 -594 3 -3 97 7 209 21 316 40
462 24 598 -67 131 -87 199 -234 222 -481 29 -303 -31 -471 -478 -1329 -359
-690 -458 -895 -576 -1194 -181 -461 -255 -822 -272 -1326 -23 -644 95 -1200
367 -1744 121 -240 365 -627 458 -727 45 -49 49 -51 50 -28 0 33 -35 163 -110
400 -155 494 -214 823 -214 1200 0 251 12 351 66 520 86 271 249 457 452 515
82 24 211 17 286 -15 121 -52 234 -147 325 -275 183 -255 193 -573 28 -860
-58 -101 -142 -208 -284 -360 l-111 -120 5 -395 c9 -599 44 -844 203 -1425 75
-274 243 -826 257 -846 11 -15 682 -645 1412 -1324 335 -311 738 -678 777
-706 l27 -20 -11 33 c-16 46 -621 1249 -1018 2023 l-333 650 27 290 c48 530
66 1058 66 2005 0 878 -18 1227 -75 1499 -39 186 -108 371 -173 469 -44 68
-102 110 -277 207 -147 81 -311 189 -430 283 -106 85 -215 195 -215 218 0 23
61 76 330 285 566 440 990 843 1166 1106 64 97 69 118 68 323 0 166 -3 197
-27 302 -50 212 -114 381 -234 621 l-64 129 33 -7 c118 -26 735 -316 975 -459
153 -91 262 -175 383 -296 123 -122 143 -157 141 -247 -5 -216 -206 -515 -673
-999 -117 -122 -221 -236 -231 -253 -18 -30 -18 -31 0 -31 39 0 431 128 848
276 446 158 591 219 1027 435 290 145 448 232 593 329 108 72 164 104 171 97
7 -7 -74 -102 -202 -237 -107 -114 -529 -586 -800 -895 -478 -545 -772 -923
-869 -1116 -178 -352 -233 -866 -140 -1299 28 -133 76 -295 99 -336 43 -77 70
-57 181 131 130 223 218 325 309 360 122 47 267 -40 525 -313 713 -755 1587
-2099 1766 -2718 53 -182 32 -266 -99 -398 -83 -84 -169 -139 -252 -161 -85
-23 -286 -30 -473 -15 -89 6 -164 10 -167 7 -3 -2 28 -60 67 -128 442 -757
1033 -1516 1665 -2139 302 -297 489 -458 824 -707 205 -152 229 -168 237 -159
7 7 -24 45 -217 266 -221 254 -453 546 -721 905 -370 500 -489 728 -489 940 0
130 48 207 160 259 40 18 68 21 273 24 l227 4 0 32 c0 71 -52 564 -80 760 -67
465 -183 960 -314 1341 -153 446 -305 720 -666 1200 -179 237 -249 340 -357
520 -169 282 -303 558 -418 860 -113 297 -156 402 -180 431 l-25 29 -27 -31
c-16 -17 -53 -62 -84 -101 -85 -105 -117 -118 -294 -118 -178 0 -199 9 -346
152 -142 138 -161 175 -167 313 -6 167 35 297 133 422 78 98 214 185 327 209
51 11 287 8 463 -7 l70 -6 136 229 c75 125 448 750 830 1388 l694 1160 7 75
c3 41 7 184 7 317 1 194 -2 244 -13 256 -19 18 -158 66 -546 187 -690 216
-1222 419 -1659 635 -340 168 -510 275 -647 407 -50 48 -96 88 -102 88 -22 0
-13 -115 23 -302 39 -200 53 -308 39 -308 -26 0 -880 827 -1589 1539 l-240
241 157 0 c248 0 532 -37 813 -105 191 -46 278 -76 428 -146 70 -33 142 -62
159 -66 l31 -6 -7 84 c-4 46 -20 188 -36 314 -61 485 -102 976 -141 1650 -6
105 -13 440 -16 745 -7 750 9 1003 77 1226 16 51 32 109 36 128 8 45 9 45
-160 11 -207 -41 -300 -33 -451 42 -164 80 -231 202 -242 438 -21 452 257
1172 734 1900 276 420 474 657 953 1135 426 427 686 655 1095 963 271 204 335
255 335 268 0 12 -8 11 -60 -10z"/>
<path d="M14960 23665 c0 -2 135 -106 300 -230 443 -333 653 -513 1032 -884
569 -556 905 -970 1233 -1516 90 -148 283 -526 339 -660 156 -375 226 -671
226 -946 0 -208 -35 -316 -131 -410 -82 -79 -197 -111 -409 -111 -93 0 -149 6
-215 21 -53 13 -92 18 -98 12 -5 -5 2 -42 17 -90 127 -401 157 -1094 91 -2056
-56 -810 -141 -1700 -186 -1954 -11 -62 -18 -115 -17 -116 2 -1 53 22 113 52
252 124 418 182 675 233 212 43 368 60 605 66 l210 6 -325 -327 c-339 -340
-1232 -1214 -1405 -1374 -89 -83 -100 -90 -103 -69 -3 25 11 124 51 358 39
223 39 230 23 230 -8 0 -56 -37 -108 -81 -231 -202 -550 -376 -1116 -610 -359
-149 -841 -317 -1696 -593 l-69 -22 2 -80 c1 -43 6 -186 12 -318 l10 -239 832
-1394 832 -1395 75 6 c219 18 376 19 453 2 114 -25 209 -77 287 -155 193 -196
238 -446 117 -661 -44 -78 -162 -194 -228 -224 -71 -33 -181 -49 -294 -44
-127 5 -174 33 -272 156 -41 50 -78 92 -83 92 -14 0 -24 -22 -94 -226 -91
-264 -162 -433 -292 -694 -182 -364 -345 -630 -568 -922 -239 -315 -333 -460
-451 -696 -268 -534 -460 -1224 -554 -1987 -21 -164 -70 -659 -67 -663 2 -2
44 4 92 12 169 30 336 13 444 -45 135 -72 171 -191 115 -384 -58 -198 -213
-460 -498 -840 -135 -179 -152 -201 -463 -580 -121 -148 -262 -323 -312 -388
-124 -160 -123 -171 10 -81 236 161 668 533 973 839 496 496 847 928 1289
1583 178 265 356 565 356 601 0 6 -116 11 -297 13 -341 4 -350 6 -480 97 -227
160 -256 329 -118 681 58 148 202 438 308 622 536 929 1434 2063 1740 2198 71
32 142 30 207 -6 92 -50 172 -154 322 -422 44 -78 84 -142 88 -142 12 0 97
230 124 339 113 454 71 1029 -99 1348 -178 335 -658 925 -1504 1848 -151 165
-315 343 -363 396 -48 53 -88 99 -88 103 0 3 73 -43 163 -104 466 -313 1057
-595 1797 -858 320 -113 700 -232 743 -232 16 0 14 6 -13 40 -18 23 -102 114
-188 203 -350 365 -526 587 -632 797 -97 192 -92 293 20 441 116 155 348 313
745 509 319 158 554 263 648 290 22 7 27 5 27 -8 0 -9 -35 -91 -79 -182 -164
-344 -225 -573 -225 -845 0 -162 15 -247 57 -315 99 -160 558 -614 937 -926
69 -56 226 -181 350 -277 124 -95 227 -182 229 -192 5 -26 -137 -160 -299
-281 -172 -129 -248 -178 -385 -247 -178 -90 -227 -131 -282 -242 -106 -211
-163 -453 -194 -825 -17 -206 -23 -1444 -10 -1989 15 -591 23 -763 57 -1116
l27 -280 -416 -810 c-495 -966 -953 -1882 -946 -1890 13 -12 297 242 959 860
738 689 1162 1102 1248 1216 33 43 49 80 71 160 16 57 65 223 109 369 123 410
189 686 247 1029 74 439 90 841 40 1007 -19 63 -88 161 -198 282 -102 111
-164 202 -217 315 -105 225 -114 418 -29 650 113 310 380 501 640 457 271 -46
486 -327 556 -725 24 -139 24 -500 -1 -675 -36 -262 -90 -497 -183 -795 -84
-272 -113 -376 -120 -423 -5 -37 -4 -42 11 -36 23 9 146 174 237 319 317 501
492 935 574 1419 78 467 69 993 -26 1450 -97 468 -275 898 -725 1754 -91 174
-192 367 -224 427 -148 281 -258 547 -286 691 -25 122 -25 391 -1 488 34 138
117 242 246 310 147 77 344 97 556 57 148 -28 205 -35 205 -23 0 44 -342 399
-525 546 -472 377 -980 602 -1555 691 -115 18 -485 37 -629 33 l-104 -3 -106
-175 c-130 -214 -169 -271 -286 -425 -230 -300 -500 -567 -770 -760 -310 -222
-705 -354 -1155 -386 -434 -31 -926 62 -1371 260 -148 65 -270 131 -273 147
-2 19 1011 517 1569 770 111 50 141 61 147 50 16 -29 28 -207 28 -423 0 -222
0 -223 22 -223 49 0 327 64 441 101 227 75 472 208 662 362 108 87 315 301
397 412 67 88 196 309 338 575 156 293 243 400 732 897 738 750 1133 1216
1423 1678 164 262 257 486 296 718 30 173 23 417 -15 561 -32 125 -92 247
-194 401 -90 135 -158 207 -317 330 -232 181 -445 308 -445 267 0 -12 94 -123
191 -227 335 -359 479 -742 385 -1020 -31 -92 -81 -181 -168 -297 -87 -116
-452 -479 -643 -637 -457 -381 -941 -696 -1133 -739 -145 -33 -221 96 -296
509 -201 1092 -69 2097 296 2266 78 36 143 46 272 40 196 -8 354 -62 489 -166
101 -78 101 -79 94 147 -3 111 -14 238 -26 312 -92 574 -319 1298 -555 1768
-482 962 -1487 1994 -2501 2570 -492 279 -1135 589 -1135 547z"/>
<path d="M11680 17512 c-128 -374 -255 -615 -445 -841 -160 -190 -294 -298
-601 -482 -351 -210 -441 -277 -538 -401 -127 -160 -227 -432 -201 -548 7 -31
9 -32 45 -27 57 7 184 71 430 217 124 73 238 140 253 149 l29 16 145 -150
c172 -179 663 -709 754 -815 116 -134 160 -193 152 -200 -4 -4 -100 -13 -213
-19 -603 -35 -936 -120 -1102 -281 -69 -68 -78 -96 -78 -255 0 -190 45 -432
111 -607 35 -91 62 -128 93 -128 12 0 64 27 116 60 181 116 309 141 465 93 83
-26 146 -63 205 -119 99 -94 140 -199 140 -359 0 -287 -157 -461 -450 -500
-90 -12 -257 29 -349 85 -49 31 -81 38 -81 20 0 -42 105 -194 182 -265 174
-158 568 -365 695 -365 22 0 48 -6 59 -14 18 -14 18 -16 -16 -51 -48 -50 -116
-97 -385 -268 -553 -350 -935 -645 -1266 -976 -202 -203 -298 -322 -358 -446
-178 -369 -90 -586 359 -885 322 -214 507 -395 606 -593 59 -117 68 -179 68
-457 0 -361 -37 -639 -145 -1082 -93 -386 -103 -457 -104 -703 0 -164 4 -228
18 -295 23 -111 69 -260 119 -385 144 -364 591 -1083 861 -1386 46 -51 48 -52
34 -19 -8 19 -49 105 -90 190 -145 300 -283 709 -342 1015 -54 276 -11 493
123 623 65 64 165 119 232 128 136 18 257 -82 364 -301 68 -140 102 -241 181
-545 68 -262 103 -371 121 -377 39 -13 47 177 48 1264 0 551 -2 1004 -6 1008
-4 4 -73 -16 -155 -43 -182 -62 -260 -76 -370 -69 -147 9 -241 78 -274 200
-27 100 6 281 80 442 75 160 271 438 466 660 152 172 293 351 363 460 109 169
128 179 167 91 31 -70 136 -209 380 -501 424 -509 508 -635 560 -841 19 -71
25 -123 25 -199 0 -232 -72 -308 -295 -308 -113 0 -180 14 -367 75 -70 23
-131 39 -135 35 -13 -13 -16 -1576 -4 -1937 11 -331 16 -385 31 -375 13 8 82
226 170 535 117 412 167 528 270 624 52 48 178 116 216 116 37 0 161 -70 223
-127 156 -141 206 -286 181 -522 -30 -278 -111 -533 -340 -1065 -56 -130 -100
-239 -97 -242 2 -3 28 21 57 53 201 219 626 894 780 1240 60 134 143 380 167
493 14 64 18 126 17 250 -1 186 -14 269 -93 620 -116 507 -158 794 -168 1140
-9 313 15 440 112 595 97 157 254 299 580 525 189 132 323 252 368 330 156
271 -18 672 -472 1087 -365 334 -859 699 -1336 988 -188 114 -257 164 -253
185 3 14 32 25 221 82 162 49 442 216 567 337 92 91 181 247 151 265 -6 4 -52
-15 -103 -43 -128 -68 -189 -84 -302 -79 -80 3 -102 8 -167 40 -85 40 -190
131 -237 206 -181 284 -3 676 340 748 132 28 255 -2 397 -96 142 -94 158 -92
211 35 69 166 120 434 120 627 0 154 -15 203 -81 262 -182 163 -573 258 -1206
292 -73 3 -133 9 -133 11 0 7 556 608 771 833 113 118 232 237 263 264 l57 49
52 -24 c29 -13 144 -80 257 -148 191 -116 335 -191 387 -204 34 -8 47 17 46
86 -1 85 -35 203 -93 322 -100 205 -218 313 -593 538 -297 179 -486 327 -639
501 -160 180 -272 378 -401 706 -82 209 -112 269 -128 253 -20 -20 -39 -166
-45 -343 -10 -292 19 -521 92 -731 72 -207 156 -343 329 -532 66 -72 113 -132
109 -138 -3 -6 -142 -201 -307 -433 -324 -454 -487 -674 -536 -720 l-31 -30
-31 30 c-59 55 -394 514 -830 1135 l-18 25 96 105 c213 233 321 418 372 641
48 208 77 518 68 714 -6 110 -40 308 -56 326 -4 4 -31 -63 -61 -150z m580
-6085 c135 -121 409 -405 610 -632 349 -393 630 -779 640 -880 16 -155 -70
-202 -470 -260 -181 -26 -392 -73 -519 -114 -187 -62 -274 -114 -337 -202 -20
-27 -40 -49 -45 -47 -5 2 -26 26 -47 53 -108 142 -312 216 -857 309 -400 69
-430 76 -450 116 -42 81 1 226 118 399 228 339 1149 1361 1225 1361 10 0 69
-46 132 -103z"/>
</g>
</svg>
